<svg width="1389" height="1389" viewBox="0 0 1389 1389" fill="none" xmlns="http://www.w3.org/2000/svg">
<circle cx="694.5" cy="688.086" r="193.74" stroke="url(#paint0_linear_2118_272)"/>
<circle cx="694.5" cy="694.5" r="243.216" stroke="url(#paint1_linear_2118_272)"/>
<circle cx="694.958" cy="694.042" r="308.727" stroke="url(#paint2_linear_2118_272)"/>
<circle cx="694.5" cy="694.5" r="376.069" stroke="url(#paint3_linear_2118_272)"/>
<path d="M1133.79 688.086C1133.79 930.699 937.317 1127.38 694.958 1127.38C452.599 1127.38 256.127 930.699 256.127 688.086C256.127 445.473 452.599 248.797 694.958 248.797C937.317 248.797 1133.79 445.473 1133.79 688.086Z" stroke="url(#paint4_linear_2118_272)"/>
<path d="M1219.91 688.086C1219.91 977.758 984.884 1212.58 694.958 1212.58C405.032 1212.58 170.002 977.758 170.002 688.086C170.002 398.415 405.032 163.588 694.958 163.588C984.884 163.588 1219.91 398.415 1219.91 688.086Z" stroke="url(#paint5_linear_2118_272)"/>
<circle cx="694.5" cy="688.086" r="608.791" stroke="url(#paint6_linear_2118_272)"/>
<circle cx="694.5" cy="694.5" r="694" stroke="url(#paint7_linear_2118_272)"/>
<defs>
<linearGradient id="paint0_linear_2118_272" x1="694.5" y1="493.846" x2="694.5" y2="882.327" gradientUnits="userSpaceOnUse">
<stop stop-color="white" stop-opacity="0"/>
<stop stop-color="white" stop-opacity="0"/>
<stop offset="0.626596" stop-color="white" stop-opacity="0.33"/>
<stop offset="1" stop-color="white" stop-opacity="0"/>
</linearGradient>
<linearGradient id="paint1_linear_2118_272" x1="694.5" y1="450.784" x2="694.5" y2="938.216" gradientUnits="userSpaceOnUse">
<stop stop-color="white" stop-opacity="0"/>
<stop stop-color="white" stop-opacity="0"/>
<stop offset="0.626596" stop-color="white" stop-opacity="0.33"/>
<stop offset="1" stop-color="white" stop-opacity="0"/>
</linearGradient>
<linearGradient id="paint2_linear_2118_272" x1="694.958" y1="384.815" x2="694.958" y2="1003.27" gradientUnits="userSpaceOnUse">
<stop stop-color="white" stop-opacity="0"/>
<stop stop-color="white" stop-opacity="0"/>
<stop offset="0.626596" stop-color="white" stop-opacity="0.33"/>
<stop offset="1" stop-color="white" stop-opacity="0"/>
</linearGradient>
<linearGradient id="paint3_linear_2118_272" x1="694.5" y1="317.931" x2="694.5" y2="1071.07" gradientUnits="userSpaceOnUse">
<stop stop-color="white" stop-opacity="0"/>
<stop stop-color="white" stop-opacity="0"/>
<stop offset="0.626596" stop-color="white" stop-opacity="0.33"/>
<stop offset="1" stop-color="white" stop-opacity="0"/>
</linearGradient>
<linearGradient id="paint4_linear_2118_272" x1="694.958" y1="248.297" x2="694.958" y2="1127.88" gradientUnits="userSpaceOnUse">
<stop stop-color="white" stop-opacity="0"/>
<stop stop-color="white" stop-opacity="0"/>
<stop offset="0.626596" stop-color="white" stop-opacity="0.33"/>
<stop offset="1" stop-color="white" stop-opacity="0"/>
</linearGradient>
<linearGradient id="paint5_linear_2118_272" x1="694.958" y1="163.088" x2="694.958" y2="1213.08" gradientUnits="userSpaceOnUse">
<stop stop-color="white" stop-opacity="0"/>
<stop stop-color="white" stop-opacity="0"/>
<stop offset="0.626596" stop-color="white" stop-opacity="0.33"/>
<stop offset="1" stop-color="white" stop-opacity="0"/>
</linearGradient>
<linearGradient id="paint6_linear_2118_272" x1="694.5" y1="78.7955" x2="694.5" y2="1297.38" gradientUnits="userSpaceOnUse">
<stop stop-color="white" stop-opacity="0"/>
<stop stop-color="white" stop-opacity="0"/>
<stop offset="0.626596" stop-color="white" stop-opacity="0.33"/>
<stop offset="1" stop-color="white" stop-opacity="0"/>
</linearGradient>
<linearGradient id="paint7_linear_2118_272" x1="694.5" y1="0" x2="694.5" y2="1389" gradientUnits="userSpaceOnUse">
<stop stop-color="white" stop-opacity="0"/>
<stop stop-color="white" stop-opacity="0"/>
<stop offset="0.626596" stop-color="white" stop-opacity="0.33"/>
<stop offset="1" stop-color="white" stop-opacity="0"/>
</linearGradient>
</defs>
</svg>
