<svg width="55" height="20" viewBox="0 0 55 20" fill="none" xmlns="http://www.w3.org/2000/svg">
<path d="M0 19.5V17.0835L12.5093 3.75761C12.7252 3.52375 12.986 3.30631 13.2835 3.10527C13.5809 2.90833 13.8743 2.74422 14.1636 2.61704L14.1351 2.5637C13.8621 2.69089 13.5483 2.79346 13.1857 2.87551C12.823 2.95757 12.4889 2.9986 12.1833 2.9986H0.215958V0.5H16.6858V2.91654L4.28656 16.2424C4.0869 16.4762 3.83427 16.6937 3.52867 16.8947C3.219 17.0958 2.92154 17.2558 2.63224 17.383L2.66076 17.4363C2.95007 17.3091 3.27197 17.2065 3.62239 17.1245C3.97281 17.0424 4.30693 17.0014 4.61253 17.0014H16.9303V19.5H0Z" fill="#023F30"/>
<path d="M18.0997 19.5L25.263 0.5H29.1421L36.3054 19.5H33.4572L31.6929 14.9664H22.6837L20.9724 19.5H18.0997ZM23.5272 12.6032C24.6681 12.6032 25.642 12.6032 26.4569 12.6032C27.2718 12.6032 27.9686 12.6401 28.5472 12.7099C29.1258 12.7632 29.684 12.9355 30.2178 13.2268C30.7516 13.5181 31.2161 14.0064 31.6154 14.6915L27.1903 2.88782L23.5272 12.6032Z" fill="#023F30"/>
<path d="M37.7152 19.5V0.5H45.3389C46.6591 0.5 47.906 0.688728 49.0836 1.07029C50.2611 1.45185 51.2839 2.03444 52.164 2.82218C53.0401 3.60991 53.7328 4.59868 54.238 5.79259C54.7433 6.9865 54.9959 8.38966 54.9959 9.99795C54.9959 11.6103 54.7433 13.0094 54.238 14.2033C53.7328 15.3972 53.0401 16.3901 52.164 17.1737C51.288 17.9615 50.2611 18.5441 49.0836 18.9256C47.906 19.3072 46.6591 19.4959 45.3389 19.4959H37.7152V19.5ZM38.5587 2.9986C38.7583 2.9986 38.9661 3.0109 39.1821 3.03962C39.3981 3.06834 39.5977 3.11347 39.777 3.17502C39.9563 3.24066 40.103 3.32272 40.213 3.43349C40.323 3.54016 40.376 3.67966 40.376 3.83967V17.0014H45.4775C46.2924 17.0014 47.1073 16.8783 47.9182 16.6363C48.7331 16.3901 49.4707 15.988 50.1308 15.43C50.7909 14.868 51.3246 14.1459 51.7321 13.2597C52.1396 12.3735 52.3433 11.2862 52.3433 10.0021C52.3433 8.7548 52.1436 7.68808 51.7443 6.79778C51.345 5.91157 50.8235 5.18948 50.1715 4.6274C49.5196 4.06532 48.782 3.65504 47.959 3.39246C47.1359 3.12989 46.3087 2.9986 45.4775 2.9986H38.5587Z" fill="#023F30"/>
</svg>
